<svg id="visual" viewBox="0 0 900 600" width="900" height="600" xmlns="http://www.w3.org/2000/svg" xmlns:xlink="http://www.w3.org/1999/xlink" version="1.1"><rect x="0" y="0" width="900" height="600" fill="#eff"></rect><defs><linearGradient id="grad1_0" x1="33.3%" y1="0%" x2="100%" y2="100%"><stop offset="20%" stop-color="#fbae3c" stop-opacity="1"></stop><stop offset="80%" stop-color="#fbae3c" stop-opacity="1"></stop></linearGradient></defs><defs><linearGradient id="grad1_1" x1="33.3%" y1="0%" x2="100%" y2="100%"><stop offset="20%" stop-color="#fbae3c" stop-opacity="1"></stop><stop offset="80%" stop-color="#b9e9aa" stop-opacity="1"></stop></linearGradient></defs><defs><linearGradient id="grad1_2" x1="33.3%" y1="0%" x2="100%" y2="100%"><stop offset="20%" stop-color="#eeffff" stop-opacity="1"></stop><stop offset="80%" stop-color="#b9e9aa" stop-opacity="1"></stop></linearGradient></defs><defs><linearGradient id="grad2_0" x1="0%" y1="0%" x2="66.7%" y2="100%"><stop offset="20%" stop-color="#fbae3c" stop-opacity="1"></stop><stop offset="80%" stop-color="#fbae3c" stop-opacity="1"></stop></linearGradient></defs><defs><linearGradient id="grad2_1" x1="0%" y1="0%" x2="66.7%" y2="100%"><stop offset="20%" stop-color="#b9e9aa" stop-opacity="1"></stop><stop offset="80%" stop-color="#fbae3c" stop-opacity="1"></stop></linearGradient></defs><defs><linearGradient id="grad2_2" x1="0%" y1="0%" x2="66.7%" y2="100%"><stop offset="20%" stop-color="#b9e9aa" stop-opacity="1"></stop><stop offset="80%" stop-color="#eeffff" stop-opacity="1"></stop></linearGradient></defs><g transform="translate(900, 0)"><path d="M0 486.7C-69.3 486.5 -138.7 486.2 -186.3 449.7C-233.9 413.2 -259.7 340.6 -287.8 287.8C-315.9 235 -346.2 201.9 -379.7 157.3C-413.2 112.6 -450 56.3 -486.7 0L0 0Z" fill="#c2f7e2"></path><path d="M0 324.5C-46.2 324.3 -92.5 324.1 -124.2 299.8C-155.9 275.5 -173.1 227.1 -191.9 191.9C-210.6 156.6 -230.8 134.6 -253.1 104.9C-275.5 75.1 -300 37.5 -324.5 0L0 0Z" fill="#d2d26a"></path><path d="M0 162.2C-23.1 162.2 -46.2 162.1 -62.1 149.9C-78 137.7 -86.6 113.5 -95.9 95.9C-105.3 78.3 -115.4 67.3 -126.6 52.4C-137.7 37.5 -150 18.8 -162.2 0L0 0Z" fill="#fbae3c"></path></g><g transform="translate(0, 600)"><path d="M0 -486.7C57 -468.5 114.1 -450.3 178.7 -431.5C243.4 -412.6 315.6 -393 344.2 -344.2C372.8 -295.3 357.7 -217.2 374.2 -155C390.7 -92.7 438.7 -46.4 486.7 0L0 0Z" fill="#c2f7e2"></path><path d="M0 -324.5C38 -312.4 76 -300.2 119.1 -287.6C162.2 -275 210.4 -262 229.5 -229.5C248.5 -196.9 238.5 -144.8 249.4 -103.3C260.4 -61.8 292.5 -30.9 324.5 0L0 0Z" fill="#d2d26a"></path><path d="M0 -162.2C19 -156.2 38 -150.1 59.6 -143.8C81.1 -137.5 105.2 -131 114.7 -114.7C124.3 -98.4 119.2 -72.4 124.7 -51.7C130.2 -30.9 146.2 -15.5 162.2 0L0 0Z" fill="#fbae3c"></path></g></svg>